<svg xmlns="http://www.w3.org/2000/svg" xmlns:xlink="http://www.w3.org/1999/xlink" width="2000" zoomAndPan="magnify" viewBox="0 0 1500 1499.999933" height="2000" preserveAspectRatio="xMidYMid meet" version="1.0"><defs><clipPath id="45b126f1c1"><path d="M 182 428 L 789 428 L 789 1446 L 182 1446 Z M 182 428 " clip-rule="nonzero"/></clipPath><clipPath id="e4e1821ca8"><path d="M 764.082031 1445.75 C 747.070312 1439.9375 732.199219 1429.410156 716.714844 1420.597656 C 544.925781 1321.636719 373.503906 1222.125 201.652344 1123.46875 C 192.042969 1118.390625 181.824219 1110.800781 182.558594 1098.5625 C 181.824219 956.945312 182.679688 815.265625 182.191406 673.589844 C 182.621094 661.042969 180.601562 643.660156 195.105469 637.910156 C 312.671875 569.914062 430.296875 501.921875 548.105469 434.480469 C 563.285156 421.503906 589.539062 432.644531 586.539062 453.574219 C 586.96875 585.214844 586.539062 716.980469 586.601562 848.742188 C 587.152344 861.289062 584.519531 878.546875 598.71875 884.789062 C 661.207031 921.878906 724.792969 957.375 787.277344 994.582031 L 787.277344 967.777344 C 787.277344 972.550781 787.398438 989.011719 787.582031 1003.457031 L 787.765625 1024.386719 L 787.828125 1026.527344 L 787.828125 1027.753906 C 788.5625 1158.476562 788.132812 1289.078125 788.011719 1419.738281 C 790.644531 1434.058594 778.035156 1445.996094 764.144531 1445.8125 " clip-rule="nonzero"/></clipPath><clipPath id="5bbd2a6e7a"><path d="M 0 0 L 607 0 L 607 1018 L 0 1018 Z M 0 0 " clip-rule="nonzero"/></clipPath><clipPath id="e3edb363d5"><path d="M 582.082031 1017.75 C 565.070312 1011.9375 550.199219 1001.410156 534.714844 992.597656 C 362.925781 893.636719 191.503906 794.125 19.652344 695.46875 C 10.042969 690.390625 -0.175781 682.800781 0.558594 670.5625 C -0.175781 528.945312 0.679688 387.265625 0.191406 245.589844 C 0.621094 233.042969 -1.398438 215.660156 13.105469 209.910156 C 130.671875 141.914062 248.296875 73.921875 366.105469 6.480469 C 381.285156 -6.496094 407.539062 4.644531 404.539062 25.574219 C 404.96875 157.214844 404.539062 288.980469 404.601562 420.742188 C 405.152344 433.289062 402.519531 450.546875 416.71875 456.789062 C 479.207031 493.878906 542.792969 529.375 605.277344 566.582031 L 605.277344 539.777344 C 605.277344 544.550781 605.398438 561.011719 605.582031 575.457031 L 605.765625 596.386719 L 605.828125 598.527344 L 605.828125 599.753906 C 606.5625 730.476562 606.132812 861.078125 606.011719 991.738281 C 608.644531 1006.058594 596.035156 1017.996094 582.144531 1017.8125 " clip-rule="nonzero"/></clipPath><clipPath id="ccfd51c38a"><rect x="0" width="607" y="0" height="1018"/></clipPath><clipPath id="b4168c936f"><path d="M 787 54 L 1193 54 L 1193 1213 L 787 1213 Z M 787 54 " clip-rule="nonzero"/></clipPath><clipPath id="ef7a9d53da"><path d="M 1156.925781 1208.414062 C 1033.425781 1138.339844 911.085938 1066.125 787.707031 995.992188 C 787.765625 1006.148438 787.828125 1016.371094 787.828125 1026.527344 L 787.765625 1024.386719 L 787.582031 1003.457031 L 787.277344 967.777344 L 787.277344 966.429688 C 787.277344 671.019531 787.214844 375.542969 787.398438 80.132812 C 784.21875 61.28125 809.003906 46.347656 823.8125 58.957031 C 937.339844 125.234375 1049.644531 193.472656 1162.925781 260 C 1172.289062 265.996094 1182.753906 270.953125 1190.035156 279.644531 C 1193.890625 296.597656 1192.117188 314.222656 1192.421875 331.359375 C 1192.117188 615.386719 1192.546875 899.417969 1192.300781 1183.324219 C 1196.402344 1202.539062 1173.632812 1221.695312 1156.988281 1208.414062 " clip-rule="nonzero"/></clipPath><clipPath id="6d4ed15feb"><path d="M 0 0 L 406 0 L 406 1159 L 0 1159 Z M 0 0 " clip-rule="nonzero"/></clipPath><clipPath id="25495c6414"><path d="M 369.925781 1154.414062 C 246.425781 1084.339844 124.085938 1012.125 0.707031 941.992188 C 0.765625 952.148438 0.828125 962.371094 0.828125 972.527344 L 0.765625 970.386719 L 0.582031 949.457031 L 0.277344 913.777344 L 0.277344 912.429688 C 0.277344 617.019531 0.214844 321.542969 0.398438 26.132812 C -2.78125 7.28125 22.003906 -7.652344 36.8125 4.957031 C 150.339844 71.234375 262.644531 139.472656 375.925781 206 C 385.289062 211.996094 395.753906 216.953125 403.035156 225.644531 C 406.890625 242.597656 405.117188 260.222656 405.421875 277.359375 C 405.117188 561.386719 405.546875 845.417969 405.300781 1129.324219 C 409.402344 1148.539062 386.632812 1167.695312 369.988281 1154.414062 " clip-rule="nonzero"/></clipPath><clipPath id="993ef1c075"><rect x="0" width="406" y="0" height="1159"/></clipPath><clipPath id="a8d7b9fbf1"><path d="M 787.277344 967 L 788 967 L 788 1004 L 787.277344 1004 Z M 787.277344 967 " clip-rule="nonzero"/></clipPath><clipPath id="102927e406"><path d="M 787.582031 1003.457031 C 787.460938 989.011719 787.277344 972.550781 787.277344 967.777344 Z M 787.582031 1003.457031 " clip-rule="nonzero"/></clipPath><clipPath id="423961d003"><path d="M 0.277344 0.679688 L 0.679688 0.679688 L 0.679688 36.679688 L 0.277344 36.679688 Z M 0.277344 0.679688 " clip-rule="nonzero"/></clipPath><clipPath id="bd0485859f"><path d="M 0.582031 36.457031 C 0.460938 22.011719 0.277344 5.550781 0.277344 0.777344 Z M 0.582031 36.457031 " clip-rule="nonzero"/></clipPath><clipPath id="4045ce3097"><rect x="0" width="1" y="0" height="37"/></clipPath></defs><g clip-path="url(#45b126f1c1)"><g clip-path="url(#e4e1821ca8)"><g transform="matrix(1, 0, 0, 1, 182, 428)"><g clip-path="url(#ccfd51c38a)"><g clip-path="url(#5bbd2a6e7a)"><g clip-path="url(#e3edb363d5)"><rect x="-512" width="2160" fill="#12a493" height="2159.999904" y="-757.999985" fill-opacity="1"/></g></g></g></g></g></g><g clip-path="url(#b4168c936f)"><g clip-path="url(#ef7a9d53da)"><g transform="matrix(1, 0, 0, 1, 787, 54)"><g clip-path="url(#993ef1c075)"><g clip-path="url(#6d4ed15feb)"><g clip-path="url(#25495c6414)"><rect x="-1117" width="2160" fill="#171919" height="2159.999904" y="-383.999985" fill-opacity="1"/></g></g></g></g></g></g><g clip-path="url(#a8d7b9fbf1)"><g clip-path="url(#102927e406)"><g transform="matrix(1, 0, 0, 1, 787, 967)"><g clip-path="url(#4045ce3097)"><g clip-path="url(#423961d003)"><g clip-path="url(#bd0485859f)"><rect x="-1117" width="2160" fill="#010101" height="2159.999904" y="-1296.999985" fill-opacity="1"/></g></g></g></g></g></g></svg>